<svg width="37" height="35" viewBox="0 0 37 35" fill="none" xmlns="http://www.w3.org/2000/svg">
<path fill-rule="evenodd" clip-rule="evenodd" d="M20.8125 0V4.625H30.0625L37 19.6562L30.0625 34.6875H6.9375L0 19.6562L6.9375 4.625H16.1875V0H20.8125ZM10.6327 27.1451L18.5 28.3554L26.3674 27.1451L25.6639 22.5738L18.5 23.6758L11.336 22.5738L10.6327 27.1451ZM16.1875 15.6094C16.1875 17.2058 14.8933 18.5 13.2969 18.5C11.7004 18.5 10.4062 17.2058 10.4062 15.6094C10.4062 14.0129 11.7004 12.7188 13.2969 12.7188C14.8933 12.7188 16.1875 14.0129 16.1875 15.6094ZM23.7031 18.5C25.2997 18.5 26.5938 17.2058 26.5938 15.6094C26.5938 14.0129 25.2997 12.7188 23.7031 12.7188C22.1067 12.7188 20.8125 14.0129 20.8125 15.6094C20.8125 17.2058 22.1067 18.5 23.7031 18.5Z" fill="white"/>
</svg>
